<?xml version="1.0" encoding="iso-8859-1"?>
<!-- Generator: Adobe Illustrator 19.0.0, SVG Export Plug-In . SVG Version: 6.00 Build 0)  -->
<svg version="1.1" id="Capa_1" xmlns="http://www.w3.org/2000/svg" xmlns:xlink="http://www.w3.org/1999/xlink" x="0px" y="0px"
	 viewBox="0 0 611.999 611.999" style="enable-background:new 0 0 611.999 611.999;" xml:space="preserve">
<g>
	<path style="fill:#966A54;" d="M465.015,611.999V409.106c0-30.281-24.546-54.836-54.836-54.836H201.824
		c-30.284,0-54.836,24.552-54.836,54.836v202.893H465.015z"/>
	<path style="fill:#966A54;" d="M351.371,354.026c0,24.588-19.931,44.522-44.522,44.522h-1.698
		c-24.585,0-44.522-19.934-44.522-44.522v-52.934c0-24.588,19.937-44.522,44.522-44.522h1.698c24.591,0,44.522,19.934,44.522,44.522
		V354.026z"/>
	<path style="fill:#7F5542;" d="M306.849,256.571h-1.698c-24.585,0-44.522,19.934-44.522,44.522v23.273
		c14.298,4.621,29.536,7.144,45.374,7.144c15.832,0,31.073-2.526,45.368-7.147v-23.27
		C351.371,276.505,331.443,256.571,306.849,256.571z"/>
	<circle style="fill:#966A54;" cx="306" cy="169.254" r="147.418"/>
	
		<ellipse transform="matrix(-0.7071 0.7071 -0.7071 -0.7071 393.6255 175.4629)" style="fill:#966A54;" cx="160.473" cy="169.254" rx="27.206" ry="40.565"/>
	<rect x="260.629" y="334.505" style="fill:#3C3C3B;" width="90.742" height="95.722"/>
	
		<ellipse transform="matrix(-0.7071 -0.7071 0.7071 -0.7071 651.1262 608.2012)" style="fill:#966A54;" cx="451.526" cy="169.248" rx="27.206" ry="40.565"/>
	<polygon style="opacity:0.5;fill:#3C3C3B;enable-background:new    ;" points="260.454,368.113 304.16,334.505 351.371,368.113 	
		"/>
	<path style="fill:#8B819B;" d="M465.015,409.103c0-30.281-24.546-54.836-54.836-54.836h-59.057l-45.968,44.279l-44.282-44.276
		h-59.048c-30.284,0-54.836,24.552-54.836,54.836v202.893h318.027V409.103z"/>
	<rect x="191.017" y="466.833" style="opacity:0.6;fill:#B5A8A0;enable-background:new    ;" width="11.089" height="145.166"/>
	<rect x="412.693" y="466.83" style="opacity:0.6;fill:#B5A8A0;enable-background:new    ;" width="11.086" height="145.169"/>
	<g>
		<path style="fill:#7F5542;" d="M315.041,245.565c-3.027,0-6.963,1.864-9.041,2.971c-2.078-1.107-6.01-2.971-9.041-2.971
			c-4.823,0-27.262,5.194-27.262,5.194s10.813,16.82,36.3,16.82s36.303-16.82,36.303-16.82S319.864,245.565,315.041,245.565z"/>
		<path style="fill:#E8C380;" d="M286.847,256.574c0,0,23.125,3.096,34.626,0"/>
	</g>
	<path style="fill:#3C3C3B;" d="M160.475,169.251c0,0,16.871-66.264,51.5-80.113s150.093,11.873,195.752-5.936
		s66.92-86.076,26.354-83.108c-40.565,2.968-99.421,15.829-173.452,8.625C216.775,4.451,144.593,21.806,160.475,169.251z"/>
	<path style="fill:#3C3C3B;" d="M415.07,79.913c0,0,37.339,44.84,34.858,70.564s12.469-82.446-7.429-101.243
		C422.6,30.437,402.482,72.668,415.07,79.913z"/>
</g>
<g>
</g>
<g>
</g>
<g>
</g>
<g>
</g>
<g>
</g>
<g>
</g>
<g>
</g>
<g>
</g>
<g>
</g>
<g>
</g>
<g>
</g>
<g>
</g>
<g>
</g>
<g>
</g>
<g>
</g>
</svg>
