<svg xmlns="http://www.w3.org/2000/svg" viewBox="0 0 335.99 235.19"><defs><style>.cls-1{isolation:isolate;}.cls-2{fill:#b2e1ee;}.cls-3,.cls-8{fill:#cfdbe5;}.cls-11,.cls-3{mix-blend-mode:multiply;}.cls-4{fill:#ffd55c;}.cls-5{fill:#fab952;}.cls-6{fill:#586773;}.cls-7{fill:#fff;}.cls-9{fill:#f69777;}.cls-10{fill:#f6d4c1;}</style></defs><title>blank_papers</title><g class="cls-1"><g id="Objects"><rect id="background" class="cls-2" width="335.99" height="235.19"/><g id="paper"><path class="cls-3" d="M125.45,22.76H37.51a5.18,5.18,0,0,0-5.17,5.17V164.14a5.17,5.17,0,0,0,5.17,5.17H139.24a5.17,5.17,0,0,0,5.17-5.17V41.72Z" transform="translate(0)"/><path class="cls-4" d="M139.89,41.72V164.14a5.17,5.17,0,0,1-5.17,5.17H33a5.17,5.17,0,0,1-5.17-5.17V27.93A5.18,5.18,0,0,1,33,22.76h87.93Z" transform="translate(0)"/><path class="cls-5" d="M139.89,41.72H126.1a5.17,5.17,0,0,1-5.17-5.17V22.76Z" transform="translate(0)"/><rect class="cls-6" x="46.79" y="58.45" width="74.14" height="1.68"/><rect class="cls-6" x="46.79" y="63.58" width="74.14" height="1.68"/><rect class="cls-7" x="46.79" y="41.72" width="37.07" height="5.8"/><rect class="cls-6" x="46.79" y="53.32" width="74.14" height="1.68"/><rect class="cls-6" x="46.79" y="94.35" width="74.14" height="1.68"/><rect class="cls-6" x="46.79" y="89.22" width="74.14" height="1.68"/><rect class="cls-6" x="46.79" y="84.1" width="74.14" height="1.68"/><rect class="cls-6" x="46.79" y="78.97" width="74.14" height="1.68"/><rect class="cls-6" x="46.79" y="73.84" width="74.14" height="1.68"/><rect class="cls-6" x="46.79" y="68.71" width="74.14" height="1.68"/><rect class="cls-6" x="46.79" y="104.89" width="74.14" height="1.68"/><rect class="cls-6" x="46.79" y="110.02" width="74.14" height="1.68"/><rect class="cls-6" x="46.79" y="99.76" width="74.14" height="1.68"/><rect class="cls-6" x="46.79" y="140.79" width="74.14" height="1.68"/><rect class="cls-6" x="46.79" y="135.66" width="74.14" height="1.68"/><rect class="cls-6" x="46.79" y="130.54" width="74.14" height="1.68"/><rect class="cls-6" x="46.79" y="125.41" width="74.14" height="1.68"/><rect class="cls-6" x="46.79" y="120.28" width="74.14" height="1.68"/><rect class="cls-6" x="46.79" y="115.15" width="74.14" height="1.68"/></g><g id="notes"><path class="cls-3" d="M218.89,52.29V47a2.51,2.51,0,1,0-5,0v5.25h-8.15V47a2.51,2.51,0,1,0-5,0v5.25h-8.15V47a2.51,2.51,0,1,0-5,0v5.25h-8.15V47a2.51,2.51,0,1,0-5,0v5.25h-8.15V47a2.51,2.51,0,1,0-5,0v5.25H153V47a2.51,2.51,0,1,0-5,0v5.25h-8.15V47a2.51,2.51,0,0,0-5,0v5.25h-8.15V47a2.51,2.51,0,0,0-5,0v5.25H111.49V190.66H229V52.29Z" transform="translate(0)"/><rect class="cls-7" x="106.1" y="52.29" width="117.54" height="138.36"/><path class="cls-6" d="M116.24,47V57.54a2.51,2.51,0,1,0,5,0V47a2.51,2.51,0,1,0-5,0Z" transform="translate(0)"/><path class="cls-6" d="M129.41,47V57.54a2.51,2.51,0,1,0,5,0V47a2.51,2.51,0,0,0-5,0Z" transform="translate(0)"/><path class="cls-6" d="M142.59,47V57.54a2.51,2.51,0,1,0,5,0V47a2.51,2.51,0,1,0-5,0Z" transform="translate(0)"/><path class="cls-6" d="M155.77,47V57.54a2.51,2.51,0,1,0,5,0V47a2.51,2.51,0,1,0-5,0Z" transform="translate(0)"/><path class="cls-6" d="M169,47V57.54a2.51,2.51,0,1,0,5,0V47a2.51,2.51,0,1,0-5,0Z" transform="translate(0)"/><path class="cls-6" d="M182.13,47V57.54a2.51,2.51,0,1,0,5,0V47a2.51,2.51,0,1,0-5,0Z" transform="translate(0)"/><path class="cls-6" d="M195.31,47V57.54a2.51,2.51,0,1,0,5,0V47a2.51,2.51,0,1,0-5,0Z" transform="translate(0)"/><path class="cls-6" d="M208.49,47V57.54a2.51,2.51,0,1,0,5,0V47a2.51,2.51,0,1,0-5,0Z" transform="translate(0)"/><rect class="cls-8" x="116.24" y="69.48" width="97.28" height="2.23"/><rect class="cls-8" x="116.24" y="77.67" width="97.28" height="2.23"/><rect class="cls-8" x="116.24" y="85.85" width="97.28" height="2.23"/><rect class="cls-8" x="116.24" y="94.03" width="97.28" height="2.23"/><rect class="cls-8" x="116.24" y="102.21" width="97.28" height="2.23"/><rect class="cls-8" x="116.24" y="110.4" width="97.28" height="2.23"/><rect class="cls-8" x="116.24" y="118.58" width="97.28" height="2.23"/><rect class="cls-8" x="116.24" y="126.76" width="97.28" height="2.23"/><rect class="cls-8" x="116.24" y="134.95" width="97.28" height="2.23"/><rect class="cls-8" x="116.24" y="143.13" width="97.28" height="2.23"/><rect class="cls-8" x="116.24" y="151.31" width="97.28" height="2.23"/><rect class="cls-8" x="116.24" y="159.5" width="97.28" height="2.23"/><rect class="cls-8" x="116.24" y="167.68" width="97.28" height="2.23"/></g><g id="pencil"><polygon class="cls-3" points="127.74 62.29 127.74 62.17 119.33 62.17 119.33 62.29 119.33 163.2 122.48 175.81 123.53 180.02 124.58 175.81 127.74 163.2 127.74 62.29 127.74 62.29"/><g id="pencil-2" data-name="pencil"><polygon class="cls-9" points="120.13 62.29 115.92 62.29 115.92 163.2 120.13 163.2 124.33 163.2 124.33 62.29 120.13 62.29"/><polygon class="cls-6" points="120.13 180.02 121.18 175.81 119.08 175.81 120.13 180.02"/><polygon class="cls-10" points="121.18 175.81 124.33 163.2 115.92 163.2 119.08 175.81 121.18 175.81"/><rect class="cls-5" x="115.92" y="62.17" width="8.41" height="8.42"/></g></g><g id="pictures"><path class="cls-3" d="M105.75,198.82,85.63,147.09a1.14,1.14,0,0,0-1.47-.65l-21.07,8.2a2.94,2.94,0,0,0-5.78.74c0,.09,0,.17,0,.26l-36.65.7a1.14,1.14,0,0,0-1.11,1.16L20.62,213a1.14,1.14,0,0,0,1.16,1.11l34.06-.65,1.62,4.15a1.14,1.14,0,0,0,1.47.65l46.18-18A1.14,1.14,0,0,0,105.75,198.82Z" transform="translate(0)"/><path class="cls-6" d="M68.46,212a1.14,1.14,0,0,1-1.11,1.16l-49.54.94A1.14,1.14,0,0,1,16.65,213l-1.05-55.5a1.14,1.14,0,0,1,1.11-1.16l49.54-.94a1.14,1.14,0,0,1,1.16,1.11Z" transform="translate(0)"/><rect class="cls-8" x="20.03" y="159.07" width="43.85" height="43.85" transform="translate(-3.43 0.83) rotate(-1.09)"/><path class="cls-7" d="M101.78,198.82a1.14,1.14,0,0,1-.65,1.47L55,218.25a1.14,1.14,0,0,1-1.47-.65L33.36,165.87A1.13,1.13,0,0,1,34,164.4l46.18-18a1.14,1.14,0,0,1,1.47.65Z" transform="translate(0)"/><rect class="cls-9" x="44.28" y="156.92" width="43.85" height="43.85" transform="matrix(0.93, -0.36, 0.36, 0.93, -60.34, 36.17)"/><circle class="cls-8" cx="56.28" cy="155.37" r="2.94"/></g><g id="pins"><g class="cls-11"><path class="cls-8" d="M274,127.47l-.32-7.06a5.52,5.52,0,0,0,2.08-2.2h-8.87a5.51,5.51,0,0,0,2.06,2.19l-.32,7.08a6.23,6.23,0,0,0-2.57,3.21h4.69c.1,4.3.27,8.79.58,8.79s.49-4.49.58-8.79h4.69A6.25,6.25,0,0,0,274,127.47Z" transform="translate(0)"/><path class="cls-8" d="M294.57,122.4a5.49,5.49,0,0,0,2.85-1l-7.9-4a5.53,5.53,0,0,0,.84,2.89l-3.51,6.16a6.24,6.24,0,0,0-3.75,1.69l4.18,2.13c-1.87,3.87-3.75,8-3.48,8.1s2.47-3.78,4.51-7.57l4.18,2.13a6.24,6.24,0,0,0-.85-4Z" transform="translate(0)"/><path class="cls-8" d="M284.23,115.26l4.48-5.49a6.24,6.24,0,0,0,4-1l-3.77-2.8c2.49-3.51,5-7.22,4.77-7.4s-3.07,3.32-5.71,6.71l-3.77-2.8a6.23,6.23,0,0,0,.16,4.13l-3.95,5.86a5.5,5.5,0,0,0-3,.53l7.12,5.29A5.53,5.53,0,0,0,284.23,115.26Z" transform="translate(0)"/><path class="cls-8" d="M308.34,170.42a6.24,6.24,0,0,0-4.08-.65l-5-5a5.51,5.51,0,0,0,.07-3l-6.58,5.94a5.52,5.52,0,0,0,3,.25l4.5,5.47a6.23,6.23,0,0,0,.24,4.1l3.48-3.14c3,3.13,6.09,6.35,6.32,6.14s-2.65-3.66-5.46-6.92Z" transform="translate(0)"/><path class="cls-8" d="M323.82,107.26l-7.34-5a5.53,5.53,0,0,0,.47,3l-4.25,5.67a6.23,6.23,0,0,0-3.93,1.21l3.88,2.64c-2.34,3.61-4.72,7.42-4.46,7.6s2.93-3.44,5.42-6.94l3.88,2.64a6.24,6.24,0,0,0-.34-4.12l3.7-6A5.5,5.5,0,0,0,323.82,107.26Z" transform="translate(0)"/></g><path class="cls-7" d="M267.63,139.48c.6,0,.69-16.52.69-16.52h-1.38S267,139.48,267.63,139.48Z" transform="translate(0)"/><path class="cls-4" d="M270.31,127.47l-.32-7.06a5.52,5.52,0,0,0,2.08-2.2H263.2a5.51,5.51,0,0,0,2.06,2.19l-.32,7.08a6.23,6.23,0,0,0-2.57,3.21H272.9A6.25,6.25,0,0,0,270.31,127.47Z" transform="translate(0)"/><path class="cls-7" d="M280.13,138.32c.53.27,8.12-14.4,8.12-14.4l-1.23-.63S279.6,138,280.13,138.32Z" transform="translate(0)"/><path class="cls-7" d="M286.68,120.24l-3.51,6.16a6.24,6.24,0,0,0-3.75,1.69l9.39,4.79a6.24,6.24,0,0,0-.85-4l2.92-6.44a5.5,5.5,0,0,0,2.85-1l-7.9-4A5.53,5.53,0,0,0,286.68,120.24Z" transform="translate(0)"/><path class="cls-7" d="M279.61,111.38l1.11.82s9.77-13.32,9.29-13.67S279.61,111.38,279.61,111.38Z" transform="translate(0)"/><path class="cls-6" d="M280.7,106.57l-3.95,5.86a5.5,5.5,0,0,0-3,.53l7.12,5.29a5.53,5.53,0,0,0-.35-3l4.48-5.49a6.23,6.23,0,0,0,4-1l-8.46-6.29A6.23,6.23,0,0,0,280.7,106.57Z" transform="translate(0)"/><path class="cls-7" d="M295.05,168.69s11.14,12.2,11.58,11.8-10.55-12.72-10.55-12.72Z" transform="translate(0)"/><path class="cls-9" d="M300.58,169.77l-5-5a5.51,5.51,0,0,0,.07-3l-6.58,5.94a5.52,5.52,0,0,0,3,.25l4.5,5.47a6.23,6.23,0,0,0,.24,4.1l7.83-7.07A6.24,6.24,0,0,0,300.58,169.77Z" transform="translate(0)"/><path class="cls-7" d="M304.52,122.37c.49.34,9.85-13.27,9.85-13.27l-1.14-.78S304,122,304.52,122.37Z" transform="translate(0)"/><path class="cls-5" d="M313.27,105.25,309,110.93a6.23,6.23,0,0,0-3.93,1.21l8.72,5.93a6.24,6.24,0,0,0-.34-4.12l3.7-6a5.5,5.5,0,0,0,3-.66l-7.34-5A5.53,5.53,0,0,0,313.27,105.25Z" transform="translate(0)"/></g></g></g></svg>