<svg xmlns="http://www.w3.org/2000/svg" viewBox="0 0 546.09 545.82"><defs><style>.cls-1{fill:#30da62;}.cls-2{fill:#07d64f;}.cls-3{fill:#1ed55c;}.cls-4{fill:#29d95e;}.cls-5{fill:#10d757;}.cls-6{fill:#434343;}.cls-7{fill:#e3d1af;}.cls-8{fill:#fcdd6d;}.cls-9{fill:#10ca55;}.cls-10{fill:#cbb796;}.cls-11{fill:#13ce58;}.cls-12{fill:#f8fdf9;}.cls-13{fill:#d6c5a4;}.cls-14{fill:#edf1f2;}.cls-15{fill:#c0b093;}</style></defs><title>empty</title><g id="Layer_2" data-name="Layer 2"><g id="Layer_1-2" data-name="Layer 1"><path class="cls-1" d="M.77,287C-.8,270.31.15,253.67,2.5,237.19,12.78,164.83,46.24,105.34,103.15,59.5,143.83,26.73,190.5,7.72,242.48,1.77,372.13-13.08,495.2,67,533.68,191.42a278.45,278.45,0,0,1,12.13,95.17,23.14,23.14,0,0,1-.64,3.37c-1.15-2.66-3.25-3.11-6-3.09-16.37.11-32.74.06-49.11.06q-44.15,0-88.3-.06c-1.91,0-4,.71-5.69-1,0-11.74.14-23.48-.08-35.21-.07-3.89,1.35-6.08,4.76-7.73,2.2-1.06,5.35-1.19,6-4.45l0,0c1.84.75,3.21-.46,4.6-1.23,6.8-3.75,13.67-7.4,20.28-11.47,4.18-2.57,9-4.2,12.48-7.85a44.25,44.25,0,0,0,16.11-9.16c1.6-1.36,2.32-2.68-.76-2.93Q439.22,190,419.76,173.15c1.65-1.34.05-2.07-.66-2.67-7.08-6-14.27-11.8-21.33-17.78a17.58,17.58,0,0,0-8.91-3.92c-10.09-1.67-20.11-3.8-30.2-5.47-14.15-2.35-28.13-5.92-42.56-6.39-4.91-3.24-10.84-2.17-16.2-3.83-9.43-2.92-19.74-2.47-28.95-6.41-11-4.7-22.09-8.5-33.95-10.38a87.65,87.65,0,0,0-45.78,4.41c-1.69.64-3.08,1.23-3.13,3.28a1,1,0,0,1-.69,0l-1.32,1a.88.88,0,0,1-.67,0l-1.33,1a.86.86,0,0,1-.67,0c-4.55.89-8.61,2.46-10.19,7.43-.42.71-1.07.7-1.76.56l-1.31,1.07.13-.07c-1.71,0-2.17,1-2.1,2.51L159.7,146c-3.25.46-3.36.58-2.53,3L155.58,151c-2.94-.13-3.69,1.5-3.3,4.07h.08c-1.68-.2-2.23.7-2.14,2.21.12.7.08,1.35-.65,1.73-2.16.4-4.79-.06-5.42,3.05-1.67,1.77-5.36.93-5.63,4.64-.24,3.4-.88,6.78-1.34,10.16l-11.21,44c-.45.18-1.19.25-1.32.56a122.27,122.27,0,0,0-6.27,22.21c-.45,2.37,1.39,2.13,2.89,2.08l-.09,0c-.08,2.39,2,2.7,3.39,2.74,4,.12,4.74,2.23,4.61,5.71-.08,2.28-1.14,5,1.3,6.87,2.36,8.16,1.45,16.63,2.3,24.93q-63.11,0-126.23-.07A12.88,12.88,0,0,0,.77,287ZM149.15,90.82c-1.75-2.55-4.9-2.54-7.3-3.94-2.93-1.71-5.82-1.57-7.55,1.91s-1.74,6.73,2.61,8.55c2.74,1.15,5.43,2.42,8.15,3.64,2.87,1.58,5.76,3.12,8.6,4.76,3.76,2.17,6.28.37,8.3-2.62,2.17-3.21.57-5.94-2.07-7.58C156.6,93.48,153.25,91.2,149.15,90.82Zm92-17.88A18.82,18.82,0,0,0,245,65.06c.78-3.43-.69-5.89-3.94-6.9-3-.93-5.46-.12-6.77,3.17-.9,2.27-2.16,4.39-3.25,6.58a36.89,36.89,0,0,0-5.52,10.52c-1.22,3.26-.81,6.63,3,8.46s6.46-.27,7.85-3.11C238.07,80.24,240.59,77,241.16,72.94Zm-49-6.06a24.18,24.18,0,0,0-3.55-9.76c-1.89-3.32-4.64-1.59-7.08-1.08-2.19.46-3.89,2.1-3.26,4.27,1.05,3.6,1.16,7.6,3.76,10.67a25.29,25.29,0,0,0,3.36,11.28c1.25,2.38,3.51,4.23,6.53,3.16s5.59-3.37,4.78-6.63C195.71,74.7,194.9,70.37,192.17,66.88Z"/><path class="cls-2" d="M.77,287a12.88,12.88,0,0,1,5.81-1.06q63.11.06,126.23.07l5.41,47.67q0,5.85,0,11.7c1.19,9.5.66,19,.34,28.55-4.85.9-8.78,3.88-13.12,5.93-1.57.74-1.74,2.08-.19,3.08,7.92,5.09,15,11.55,23.92,15,2.36,4.15.52,9.86,4.9,13.27,0,5.32-1.7,11.18,4.81,14.3,8.07,3.14,15.11,0,22.08-3.6,6.25.54,10.16,5.38,14.93,8.45,27.26,17.55,53.47,36.71,81.17,53.6l1,1c-.16,2.11-2,2.54-3.42,3.16-3.93,1.69-3.73,6.83-2.73,7.88,5,5.25-.45,4.63-2.61,4.81-3.23.28-3,1.59-2.18,3.84.33,1,2.1,1.48,1,3-1.85.58-4.45,0-5,2.91a5.44,5.44,0,0,1-4.74,4.47c-8.9,1.62-10.48,9.73-14.22,16.29.45-.5-.24-.38-1-.33a1.83,1.83,0,0,0-1.92,2.22c.05.68.38,1.37,1.14,1.25,1.37-.22,1.64-1.36,1.75-3.14,4.38-.54,2.33,2.56,1.82,4-.72,2.06.2,5.87-4.4,5-2.5-.46-5.58-1.88-7.45,1.51l-4.36.25A247.29,247.29,0,0,1,141,511.61Q27.07,446.25,3.73,316.74A168.8,168.8,0,0,1,.77,287Zm113.66,56.2c-2.43-3-3.77-7.15-8.18-8.28-7-1.78-7-1.81-5.72-8.84.79-4.47-1.72-6.61-6.11-5.22-7.56,2.4-9.42,8.65-4.43,14.9-6.16,1.81-6.89,3-3.9,6.55a8,8,0,0,1-1.06,1.6c-1.13,1.05-3.78,1-3.31,3.11s2.92,2.13,4.59,2.41c9.84,1.61,19.75,2.84,29.58,0,2-.58,5.69,0,5.55-2.89-.13-2.77-3.63-2.86-6-3.42A3.44,3.44,0,0,0,114.42,343.18Zm125.09,194c.26.11.58.37.77.3s.25-.48.36-.74c-.26-.11-.58-.38-.76-.3S239.63,536.91,239.52,537.18Z"/><path class="cls-3" d="M490.1,286.92c16.37,0,32.74,0,49.11-.06,2.71,0,4.81.43,6,3.09-1,26.89-7,52.74-16.19,77.9-2.63,7.17-5.23,14.39-9.1,21-5.91,2-10,6.71-14.39,10.51C497,406.69,488.9,414.34,479.94,421c-7.87,5.88-15.73,11.79-23.32,18-2.35,1.94-4.49,3.24-7.5,2.87-2.83-6.29-7.45-11.28-11.86-16.42-1.2-1.4-2.15-3.05-4.41-2.51a32.56,32.56,0,0,1-7-10c.64.14,1.63.07,1.87.46,3.26,5.24,6,2.57,9.55,0,4.11-2.93,6.83-7.21,10.93-10,8.86-6,16.94-13,25.14-19.78,2.62-2.18,4-5.78,7.79-6.68,1.55-.37,3-1,2.74-2.91a3.74,3.74,0,0,0-2.94-3.08c-4-1.11-8-2.11-12-3.13-10.55-2.69-21.59-3.11-31.87-7,0-2.68.76-7.19,2.93-6.29,5.64,2.32,4.74-1.41,5.46-4.24a5.55,5.55,0,0,1,1.47-2.56c4.36-4.12,9.29-7.82,9.33-14.7a2.25,2.25,0,0,1,1.93-2.05c2.19-.48,2.63-2.06,3.09-4,.54-2.26.35-5,4.43-4.9,2.17,0,4.66-3.38,4-5.59-1.26-4.49,2.43-6.69,3-10.38,5.2,4.25,6.74,3.67,8.55-2.29a17.79,17.79,0,0,1,3.82-6.24C487.69,294.7,492.71,292.41,490.1,286.92Z"/><path class="cls-4" d="M449.12,441.93c3,.37,5.15-.93,7.5-2.87,7.58-6.24,15.44-12.15,23.32-18,9-6.69,17.09-14.34,25.55-21.62,4.43-3.81,8.48-8.56,14.39-10.51-6,14.54-14.23,27.86-23.29,40.62q-54.69,77-145.07,104.86a18.91,18.91,0,0,1-2.43.42c.31-2.55-1.41-3.95-3.09-5.33-3.94-3.25-3.89-4.45.5-7.19,4.18-2.61,8.3-5.21,11.23-9.38,1.11-1.57,2.57-3.84,4.48-3.69,3.92.3,5.49-2.48,7.71-4.58,1.44-1.36,3.1-2.51,4.5-3.91,3.4-3.4,8.12-5.35,11.21-8.69,2.59-2.79,4.88-5.16,8.48-6.28.78-.24,1.81-.54,2.17-1.14,5.19-8.67,14.25-13.13,21.46-19.58,2.72-2.43,5.2-5.51,8.42-7.07,3.38-1.64,4.32-3.75,4-7h1c1.51,1.48,1.77.26,2-.95,3.77.76,7.45.19,11.14-.62C448.36,448.46,451,446.68,449.12,441.93Z"/><path class="cls-3" d="M430.11,450.92c.37,3.3-.57,5.41-4,7-3.22,1.56-5.7,4.64-8.42,7.07-7.2,6.45-16.27,10.91-21.46,19.58-.36.6-1.39.9-2.17,1.14-3.59,1.11-5.89,3.48-8.48,6.28-3.09,3.34-7.81,5.29-11.21,8.69-1.4,1.4-3.06,2.54-4.5,3.91-2.22,2.1-3.79,4.89-7.71,4.58-1.92-.15-3.38,2.12-4.48,3.69-2.93,4.17-7,6.77-11.23,9.38-4.39,2.74-4.44,3.94-.5,7.19,1.68,1.39,3.4,2.78,3.09,5.33a198.06,198.06,0,0,1-41.91,8.67c-.2-9.08,6.42-14,12.13-19.26,2.92-2.7,3.73-5.88.4-7.63-2.84-1.5-2.58-3.41-2.61-5.67,5.1-3.05,8.86-7.45,12.41-12.13,4-5.27,11.22-6.81,15.12-11.79,3.63-4.64,8.45-7.62,12.55-11.51,6.2-5.88,14-10.14,19.76-16.38,4.36-4.74,8.7-4.69,13.88-4.07.65.08,1.31.56,1.92.47,3.21-.44,6.78-1.23,6.88-5.08.12-4.66,3.65-6.79,6-9.78,1.07-1.37,3.16-1.12,4.53.1,1.59,1.42.59,2.49-.7,3.63-2.07,1.83-1.27,2.89,1.07,3.83C416.83,450.75,423.63,449.63,430.11,450.92Z"/><path class="cls-5" d="M317.1,510.92c0,2.26-.23,4.17,2.61,5.67,3.32,1.75,2.51,4.93-.4,7.63-5.71,5.29-12.33,10.19-12.13,19.26l-5.08.43c-.89-1.25-1.53-.91-2,.31a31.31,31.31,0,0,1-10,.7c-1.14-1.33-2.17-1.38-3,.28a33.47,33.47,0,0,1-10,.39c-.67-.77-1.31-.71-1.92.07l-5.09,0c-4.63-.58-9.22-2-14-.7l-5-.26c-2.26-.81-4.49-1.91-7-.74l-2-.22a1.87,1.87,0,0,0-2.88-.21,9.86,9.86,0,0,1-5.06-.8,5.4,5.4,0,0,0-.06-.89c1.88-3.39,5-2,7.45-1.51,4.59.85,3.68-3,4.4-5,.51-1.45,2.56-4.54-1.82-4.37,3.74-6.2,5.32-14.31,14.22-15.92a5.44,5.44,0,0,0,4.74-4.47c.6-3,3.2-2.33,5-2.91,1.15-1.52-.62-2-1-3-.78-2.25-1.05-3.57,2.18-3.84,2.16-.18,7.58.44,2.61-4.81-1-1.06-1.19-6.19,2.73-7.88,1.45-.62,3.26-1.06,3.42-3.16,3.46,2.23,7,4.4,10.37,6.71C298,498.11,308,503.88,317.1,510.92Z"/><path class="cls-3" d="M256.09,544.93c4.73-1.32,9.32.12,14,.7C265.37,545.79,260.69,546.2,256.09,544.93Z"/><path class="cls-3" d="M244.09,543.94c2.47-1.17,4.7-.07,7,.74C248.68,544.89,246.31,545.07,244.09,543.94Z"/><path class="cls-3" d="M287.08,545.2c.87-1.66,1.89-1.61,3-.28A2.89,2.89,0,0,1,287.08,545.2Z"/><path class="cls-3" d="M300.07,544.22c.5-1.23,1.14-1.57,2-.31A1.59,1.59,0,0,1,300.07,544.22Z"/><path class="cls-3" d="M234.07,541.82a5.4,5.4,0,0,1,.06.89,6.38,6.38,0,0,1-4.41-.63Z"/><path class="cls-3" d="M239.18,543.51a1.87,1.87,0,0,1,2.88.21Z"/><path class="cls-3" d="M275.13,545.67c.61-.78,1.25-.84,1.92-.07Z"/><path class="cls-6" d="M154.11,411.18c-4.38-3.41-2.54-9.12-4.9-13.27-.25-7-2.51-13.73-3.45-20.64l-6.54-38.14c-.25-1.84,0-3.78-1-5.48L132.8,286c-.85-8.3.06-16.77-2.3-24.94-.05-4.39,1.78-8.84-.41-13.16,1.46-1.9,1-4.12,1-6.23a219.58,219.58,0,0,1,9.15-65.73l9.49-15.05c3.64-3.65,7.22-7.34,11.48-10.31,11.78-8.21,25-11.47,39.16-11.1,22.4.58,42.65,7.73,60.85,20.87,8.91,6.44,13.54,14.78,13,25.9-.08,1.59-.52,3.34.63,4.81,0,4,.09,8-.06,11.93-.93,25-3.58,49.88-6,74.77a8.19,8.19,0,0,0-.64,1.83c-2,19.33-4.14,38.64-5.74,58-.75,9.15-5.34,15-13,19.17s-16.74,6.28-21.14,15c-1.79-14.36-4.51-16.66-16-13.53-1.13-.46-.66-1-.27-1.8A75.17,75.17,0,0,1,224.14,338c7.64-5.17,7.67-5.18,5.38-13.77a63.26,63.26,0,0,0-4.76-13.41,14.71,14.71,0,0,1-1.45-2.49q-7.68-22.17-15.28-44.37c-2.1-11.7-5.4-23.18-6.09-35.15l-1.56-.19-7.19,33.34C187.54,284,182.63,306.28,178,328.61c-3.82,18.57-7.79,37.12-9.71,56-1.38,6.95-1.48,14-1.8,21.05.48,3-1.07,4.35-3.8,5.08A20,20,0,0,1,154.11,411.18Z"/><path class="cls-7" d="M419.76,173.15q19.48,16.82,39.73,32.69c.59,2.4-1.54,2.63-2.83,3.42-4.66,2.87-9.37,5.65-14.07,8.47-9.58,5.25-19.26,10.34-28.68,15.85-2.44,1.43-5.76,1.84-7.13,4.9l0,0c-5.1,1.11-9.25,3.93-13.08,7.32-2.28,0-4.11,1.25-6,2.28-6.77,3.79-13.57,7.54-20.16,11.63-3.63,2.26-6.62,2.46-9.51-.89-4.3-7.26-11.05-12.2-16.94-18-.1-1.45-1-2.37-2-3.34-8.25-8.61-16.79-17-24.62-25.94-4.86-5.57-10.89-10.15-14.61-16.7,9.6-6,20.39-9.52,30.21-15a20.14,20.14,0,0,0,2.36-.75c14.83-6.72,29.75-13.25,44.4-20.33,4.51-2.18,10-2.85,13.31-7.25,2-.29,3.37.66,4.86,1.86C403.27,160.07,411.53,166.59,419.76,173.15Z"/><path class="cls-5" d="M490.1,286.92c2.61,5.49-2.41,7.78-5,10.76a17.79,17.79,0,0,0-3.82,6.24c-1.81,6-3.35,6.54-8.55,2.29-.56,3.69-4.24,5.89-3,10.38.62,2.21-1.88,5.63-4,5.59-4.09-.07-3.9,2.65-4.43,4.9-.46,1.92-.9,3.5-3.09,4a2.25,2.25,0,0,0-1.93,2.05c0,6.88-5,10.59-9.33,14.7a5.55,5.55,0,0,0-1.47,2.56c-.72,2.83.18,6.56-5.46,4.24-2.17-.89-2.92,3.61-2.93,6.29-4.86.69-9.23-2.09-14-2-9.48-2.28-19-4.51-28.74-5q0-2,0-4c.61-.12,1.29-.26,1.29-1s-.68-.9-1.29-1q0-1,0-2,4-4,0-8c-.34-17.32-.5-34.65.06-52l1.71,0c1.67,1.66,3.78,1,5.69,1Q446,286.94,490.1,286.92Z"/><path class="cls-8" d="M330.18,179.91c-9.83,5.5-20.61,9.06-30.21,15a53.34,53.34,0,0,1-25.17-3.87c-1.14-1.48-.71-3.22-.63-4.81.57-11.11-4.06-19.46-13-25.9-18.19-13.14-38.44-20.29-60.85-20.87-14.11-.37-27.37,2.89-39.16,11.1-4.26,3-7.85,6.66-11.48,10.31l-1.16-.17,1-1.66c.73-.38.77-1,.65-1.73a3.13,3.13,0,0,0,2.14-2.21h-.08a11.21,11.21,0,0,0,3.3-4.07l1.59-2.08,2.53-3,8.47-8.48a3.53,3.53,0,0,0,2.1-2.51l-.13.07,1.31-1.07c.69.13,1.34.14,1.76-.56,3.34-2.55,7.35-4.18,10.19-7.43a.86.86,0,0,0,.67,0c.75.1,1-.43,1.33-1a.88.88,0,0,0,.67,0c.75.1,1-.43,1.32-1a1,1,0,0,0,.69,0,15.43,15.43,0,0,0,2.37-.57c15.33-6.32,31.17-7.22,47.4-4.66,14.39,2.27,27.72,7.8,41.12,13.13,3,1.76,5.92,3.6,8.95,5.28,11.35,6.3,19.69,16.13,29.06,24.76C321,168.17,326.72,173.22,330.18,179.91Z"/><path class="cls-7" d="M140.22,175.93a219.58,219.58,0,0,0-9.15,65.73c0,2.11.47,4.34-1,6.23-3.26.49-5.6-2.79-8.9-2.16l.09,0c-.93-1.79-.17-3.5.23-5.24q2.25-9.8,4.46-19.61l11.21-44Z"/><path class="cls-4" d="M279,131.87c-13.4-5.32-26.73-10.86-41.12-13.13-16.22-2.56-32.06-1.65-47.4,4.66a15.43,15.43,0,0,1-2.37.57c0-2.05,1.44-2.64,3.13-3.28A87.65,87.65,0,0,1,237,116.29c11.86,1.88,23,5.68,33.95,10.38,9.21,3.94,19.52,3.49,28.95,6.41,5.36,1.66,11.29.6,16.2,3.83q0,.42,0,.84c-1.31-.15-2.62-.24-3.91-.45Q295.59,134.61,279,131.87Z"/><path class="cls-3" d="M316.12,137.76q0-.42,0-.84c14.44.47,28.41,4,42.56,6.39,10.09,1.67,20.1,3.81,30.2,5.47a17.58,17.58,0,0,1,8.91,3.92c7.07,6,14.25,11.82,21.33,17.78.71.6,2.31,1.33.66,2.67-8.23-6.56-16.49-13.08-24.66-19.7-1.48-1.2-2.88-2.15-4.86-1.86-3-.62-6-1.95-9.16-1.45-4-1.5-8.29-1.93-12.48-2.61-10-1.63-19.79-4-29.92-4.93C331.08,141.87,323.63,139.43,316.12,137.76Z"/><path class="cls-9" d="M192.17,66.88c2.73,3.5,3.54,7.83,4.55,11.91.8,3.26-1.79,5.56-4.78,6.63s-5.28-.77-6.53-3.16A25.28,25.28,0,0,1,182,71C184.8,68.08,188.63,67.84,192.17,66.88Z"/><path class="cls-9" d="M241.16,72.94c-.57,4.06-3.09,7.31-4.8,10.84-1.39,2.85-4.13,4.92-7.85,3.11s-4.17-5.2-3-8.46a36.88,36.88,0,0,1,5.52-10.52C234.31,69.84,236.54,73.79,241.16,72.94Z"/><path class="cls-9" d="M149.15,90.82c4.1.38,7.45,2.66,10.75,4.71,2.63,1.64,4.24,4.37,2.07,7.58-2,3-4.55,4.79-8.3,2.62-2.84-1.64-5.73-3.18-8.6-4.76C145.52,97.22,147.77,94.19,149.15,90.82Z"/><path class="cls-5" d="M149.15,90.82c-1.38,3.38-3.63,6.41-4.09,10.16-2.71-1.22-5.4-2.49-8.15-3.64-4.35-1.82-4.4-5-2.61-8.55s4.61-3.62,7.55-1.91C144.25,88.27,147.4,88.27,149.15,90.82Z"/><path class="cls-5" d="M241.16,72.94c-4.62.85-6.85-3.09-10.08-5,1.1-2.19,2.35-4.32,3.25-6.58,1.31-3.28,3.77-4.09,6.77-3.17,3.26,1,4.73,3.48,3.94,6.9A18.82,18.82,0,0,1,241.16,72.94Z"/><path class="cls-5" d="M192.17,66.88c-3.54,1-7.37,1.2-10.13,4.1-2.6-3.07-2.71-7.06-3.76-10.67-.63-2.17,1.06-3.8,3.26-4.27,2.44-.52,5.19-2.24,7.08,1.08A24.18,24.18,0,0,1,192.17,66.88Z"/><path class="cls-3" d="M396.11,285.91l-1.71,0c-.1-2.14-.26-4.28-.29-6.42q-.22-16.84-.38-33.68c3.83-3.39,8-6.2,13.08-7.32-.67,3.26-3.82,3.38-6,4.45-3.41,1.65-4.83,3.83-4.76,7.73C396.25,262.43,396.11,274.17,396.11,285.91Z"/><path class="cls-10" d="M140.22,175.93l-3,1c.46-3.39,1.1-6.76,1.34-10.16.26-3.7,4-2.87,5.63-4.64l4.41-1.4,1.16.17Z"/><path class="cls-3" d="M406.78,238.48c1.37-3.06,4.69-3.47,7.13-4.9,9.42-5.52,19.1-10.61,28.68-15.85l1.54.2c-3.5,3.65-8.3,5.28-12.48,7.85-6.61,4.07-13.48,7.72-20.28,11.47C410,238,408.62,239.23,406.78,238.48Z"/><path class="cls-4" d="M126,220.93q-2.23,9.8-4.46,19.61c-.4,1.74-1.16,3.45-.23,5.24-1.5.05-3.34.29-2.89-2.08a122.27,122.27,0,0,1,6.27-22.21C124.78,221.18,125.52,221.11,126,220.93Z"/><path class="cls-4" d="M444.14,217.93l-1.54-.2c4.69-2.82,9.41-5.6,14.07-8.47,1.29-.79,3.42-1,2.83-3.42,3.07.25,2.35,1.58.76,2.93A44.25,44.25,0,0,1,444.14,217.93Z"/><path class="cls-3" d="M121.19,245.74c3.29-.63,5.64,2.64,8.9,2.16,2.2,4.32.36,8.77.41,13.16-2.45-1.88-1.38-4.58-1.3-6.86.12-3.48-.58-5.59-4.61-5.71C123.24,248.44,121.11,248.14,121.19,245.74Z"/><path class="cls-3" d="M183.41,126c-2.84,3.24-6.85,4.87-10.19,7.43C174.8,128.48,178.86,126.91,183.41,126Z"/><path class="cls-3" d="M148.56,160.71l-4.41,1.4c.63-3.11,3.26-2.66,5.42-3.05Z"/><path class="cls-3" d="M155.58,151a11.21,11.21,0,0,1-3.3,4.07C151.89,152.54,152.64,150.9,155.58,151Z"/><path class="cls-5" d="M159.7,146l-2.53,3C156.34,146.57,156.45,146.45,159.7,146Z"/><path class="cls-5" d="M170.28,135a3.53,3.53,0,0,1-2.1,2.51C168.1,136,168.57,135,170.28,135Z"/><path class="cls-3" d="M152.36,155.11a3.13,3.13,0,0,1-2.14,2.21C150.13,155.81,150.68,154.91,152.36,155.11Z"/><path class="cls-3" d="M171.46,134l-1.31,1.07Z"/><path class="cls-3" d="M185.41,125c-.29.54-.58,1.07-1.33,1Z"/><path class="cls-3" d="M187.4,124c-.28.54-.56,1.07-1.32,1Z"/><path class="cls-9" d="M394.35,353.92c9.79.5,19.27,2.73,28.74,5,3.32,3.76,1.16,6.75-2.08,8.26-6.32,2.94-10.31,8.6-15.73,12.6-9.1,6.7-18.53,13.35-25.85,22.27a3.83,3.83,0,0,1-2.9,1.77c-4.07-.08-6,2.6-7.16,5.84-.58,1.57-1.55,3-2.86,3.2-8.11,1.26-11.55,8.82-17.64,12.75a41.51,41.51,0,0,0-8.15,7.5c-2.47,2.74-6.44,4.6-9.57,7.24-13.92,11.72-27.32,24.09-42,34.86-4,2.93-7.29,6.84-12,8.72-27.7-16.89-53.91-36-81.17-53.6-4.77-3.07-8.68-7.91-14.93-8.45,1.22-1.75,3.75-2.35,4.18-4.79a26,26,0,0,0,6.71-7.16c2.64-4.43,1.22-10.93-3.19-14.24-4.08-3.06-9.23-2.36-12.89,1.91a74.84,74.84,0,0,0-5.15,6.76c-1.11,1.64-2.3,2.29-4.13,1.34.32-7,.41-14.1,1.8-21.05l33.51,9.89,5.12,1.83c.48,2.25.52,4.57,1.77,6.65,4.24,7,11.78,7.24,19.23.45,18.17,5.63,36.29,11.48,54.56,16.78,5.44,1.58,10.68,4.42,16.64,4q21.37-13.66,41.87-28.58c5.92-3.88,12.46-6.91,17.2-12.43,1.84.18,3.06-1,4.42-2,8.62-5.87,17.11-11.92,25.9-17.52C392.36,361.28,394.91,358.67,394.35,353.92Z"/><path class="cls-11" d="M277.09,483.92c4.75-1.88,8-5.79,12-8.72,14.71-10.76,28.1-23.13,42-34.86,3.13-2.64,7.1-4.5,9.57-7.24a41.51,41.51,0,0,1,8.15-7.5c6.09-3.93,9.52-11.49,17.64-12.75,1.31-.2,2.27-1.63,2.86-3.2,1.21-3.24,3.09-5.92,7.16-5.84a3.83,3.83,0,0,0,2.9-1.77c7.32-8.92,16.75-15.57,25.85-22.27,5.42-4,9.41-9.65,15.73-12.6,3.24-1.51,5.4-4.5,2.08-8.26,4.78-.09,9.14,2.69,14,2,10.28,3.88,21.33,4.31,31.87,7,4,1,8,2,12,3.13a3.74,3.74,0,0,1,2.94,3.08c.25,1.93-1.19,2.54-2.74,2.91-3.75.9-5.16,4.5-7.79,6.68-8.2,6.82-16.28,13.79-25.14,19.78-4.09,2.77-6.82,7.06-10.93,10-3.58,2.55-6.29,5.22-9.55,0-.24-.39-1.23-.31-1.87-.46l-.87-.86c0-3.13-2.23-3.35-4.52-3.2-6.1.39-11.94-.06-16.94-4.21-.84-.7-2.15-.84-3.25-1.21-2.34-.79-3,.56-3.11,2.52l0,0c-3.89.26-3,3.23-3.1,5.57-.17,3.8-.87,6.45-5.84,6.53-5.65.09-9,6.36-7.08,11.84l-.11,1a8.13,8.13,0,0,0,0,11,39.14,39.14,0,0,0,2.29,5c4.16,6.54,9,6.77,13.84.73,1.24-1.56,2.33-3.24,3.52-4.84,5.1-6.83,7.56-7.26,13.34-1.07,4.81,5.15,10.35,6.92,17,5.94,3.61-.53,7.25-1,10.8-1.85,6-1.42,6.59-2.94,2.74-8s-7.86-9.85-11.8-14.76c2.26-.54,3.21,1.11,4.41,2.51,4.42,5.15,9,10.14,11.86,16.42,1.85,4.74-.76,6.52-4.85,7.41-3.69.8-7.38,1.38-11.14.62a2.09,2.09,0,0,0-2,.95h-1c-6.48-1.3-13.27-.17-19.61-2.71-2.34-.94-3.14-2-1.07-3.83,1.29-1.14,2.29-2.21.7-3.63-1.37-1.22-3.46-1.47-4.53-.1-2.33,3-5.86,5.12-6,9.78-.1,3.85-3.66,4.64-6.88,5.08-.61.08-1.27-.39-1.92-.47-5.18-.62-9.52-.67-13.88,4.07-5.74,6.23-13.57,10.49-19.76,16.38-4.1,3.89-8.92,6.87-12.55,11.51-3.89,5-11.11,6.52-15.12,11.79-3.55,4.67-7.3,9.07-12.41,12.13-9.13-7-19.12-12.81-28.63-19.28-3.4-2.32-6.91-4.48-10.37-6.71Z"/><path class="cls-12" d="M166.53,405.68c1.83,1,3,.3,4.13-1.34a74.84,74.84,0,0,1,5.15-6.76c3.66-4.26,8.81-5,12.89-1.91,4.41,3.31,5.83,9.81,3.19,14.24a26,26,0,0,1-6.71,7.16c-.7-1.08-1.6-1-2.55-.4-6.15,4-12.8,6-20.16,5.25-2.66-.27-3.51,1.22-3.55,3.55-6.51-3.12-4.85-9-4.81-14.3a20,20,0,0,0,8.63-.42C165.46,410,167,408.69,166.53,405.68Z"/><path class="cls-12" d="M86.08,342.29c-3-3.52-2.26-4.75,3.9-6.55-5-6.25-3.12-12.5,4.43-14.9,4.39-1.39,6.89.75,6.11,5.22-1.24,7-1.24,7.05,5.72,8.84,4.41,1.13,5.74,5.24,8.18,8.28,1.77,3.59.66,5.22-3.34,5.06a51.83,51.83,0,0,0-7.45.06c-5,.53-9.82,1-13-4.3C89.79,342.63,87.75,342.48,86.08,342.29Z"/><path class="cls-9" d="M145.75,377.27c.94,6.91,3.2,13.61,3.45,20.64-8.95-3.44-16-9.9-23.92-15-1.56-1-1.38-2.34.19-3.08,4.34-2,8.26-5,13.12-5.93C140.08,376.94,143.13,376.66,145.75,377.27Z"/><path class="cls-9" d="M86.08,342.29c1.67.19,3.7.34,4.54,1.71,3.2,5.25,8,4.83,13,4.3a51.83,51.83,0,0,1,7.45-.06c4,.16,5.11-1.47,3.34-5.06a3.44,3.44,0,0,1,1-.06c2.39.56,5.89.65,6,3.42.14,2.92-3.52,2.31-5.55,2.89-9.83,2.81-19.73,1.58-29.58,0-1.67-.27-4.14-.4-4.59-2.41s2.17-2.05,3.31-3.11A8,8,0,0,0,86.08,342.29Z"/><path class="cls-13" d="M145.75,377.27c-2.63-.61-5.67-.33-7.17-3.36.32-9.52.85-19-.34-28.56.93-2,.8-4.13,1-6.23Z"/><path class="cls-14" d="M158.91,425.48c0-2.33.89-3.82,3.55-3.55,7.37.75,14-1.29,20.16-5.25.94-.61,1.85-.67,2.55.4-.43,2.44-3,3-4.18,4.79C174,425.45,167,428.62,158.91,425.48Z"/><path class="cls-9" d="M139.21,339.13c-.16,2.1,0,4.24-1,6.23q0-5.85,0-11.7C139.25,335.36,139,337.29,139.21,339.13Z"/><path class="cls-5" d="M244.1,531.65c-.11,1.42-.37,2.56-1.75,2.78-.76.12-1.08-.57-1.14-1.25a1.83,1.83,0,0,1,1.92-2.22C243.86,530.9,244.54,530.78,244.1,531.65Z"/><path class="cls-5" d="M239.52,537.17c.12-.26.17-.67.36-.74s.5.19.76.3c-.11.26-.17.67-.36.74S239.78,537.29,239.52,537.17Z"/><path class="cls-12" d="M381.09,430.92l.11-1c3.27-10,6.37-11.83,15.28-9.19,1.14.34,2.1,2,3.9.39-3-4.54-6.63-9.19-3.15-15.15l0,0c1.44-.5,3-1,4.33,0a28.09,28.09,0,0,0,21.17,5.3c.72-.1,1.54.54,2.32.83l.87.86a32.56,32.56,0,0,0,7,10c3.94,4.91,8,9.74,11.8,14.76s3.31,6.61-2.74,8c-3.55.83-7.19,1.32-10.8,1.85-6.69,1-12.23-.78-17-5.94-5.77-6.19-8.24-5.75-13.34,1.07-1.19,1.6-2.28,3.28-3.52,4.84-4.83,6-9.68,5.81-13.84-.73a39.14,39.14,0,0,1-2.29-5Q381.09,436.42,381.09,430.92Zm31.71-.44c5.41,11.39,5.85,11.7,13,9.42A65.44,65.44,0,0,0,412.81,430.48Z"/><path class="cls-3" d="M431.1,450.91a2.09,2.09,0,0,1,2-.95C432.87,451.18,432.61,452.39,431.1,450.91Z"/><path class="cls-13" d="M299.15,424.2c-6,.45-11.2-2.39-16.64-4-18.27-5.3-36.39-11.14-54.56-16.78a15,15,0,0,0,1.22-6.8c-.35-8.3-.63-16.61-.94-24.91,4.4-8.73,13.48-10.88,21.14-15s12.27-10,13-19.17c1.6-19.36,3.77-38.67,5.74-58a8.17,8.17,0,0,1,.64-1.83,76.06,76.06,0,0,0,14.29,4c1.83.38,3.63.59,4-2.19,2-14.21,4-28.4,6-42.6l5-1a28.68,28.68,0,0,1,1,8.31c-.06,12.57,0,25.14,0,37.71Q299.12,353.06,299.15,424.2Z"/><path class="cls-15" d="M299.1,281.92c0-12.57-.05-25.14,0-37.71a28.67,28.67,0,0,0-1-8.31,41.8,41.8,0,0,0-1.57-24.27l-3.45,25.29c-2,14.2-4.06,28.39-6,42.6-.38,2.77-2.19,2.56-4,2.19a76.06,76.06,0,0,1-14.29-4c2.38-24.89,5-49.76,6-74.77.15-4,0-8,.06-11.93A53.34,53.34,0,0,0,300,194.93c3.72,6.56,9.75,11.13,14.61,16.7,7.82,9,16.37,17.33,24.62,25.94.93,1,1.88,1.89,2,3.34q0,10-.08,20c-3.21-.33-5.68,1.41-8.32,2.84C321.57,269.86,310.33,275.87,299.1,281.92Z"/><path class="cls-13" d="M201.84,394.52l-33.51-9.89c1.92-18.9,5.89-37.45,9.71-56,4.59-22.32,9.51-44.58,15.17-66.66,3.47-.17,6.59,1.37,9.9,2q0,61.41,0,122.82C203.11,389.42,203.3,392.1,201.84,394.52Z"/><path class="cls-7" d="M201.84,394.52c1.47-2.42,1.27-5.1,1.27-7.76q0-61.41,0-122.82H208q7.63,22.19,15.28,44.37a14.75,14.75,0,0,0,1.45,2.49c-2.58.16-2.67,2-2.66,3.92,0,6.16.1,12.32,0,18.48a5.91,5.91,0,0,0,2.08,4.79,75.17,75.17,0,0,0-12.21,18.43c-.39.85-.86,1.34.27,1.8-.6,2.84-3.26,4.53-3.34,8-.23,10.07-1.21,20.12-1.9,30.17Z"/><path class="cls-12" d="M207,396.35c.69-10.06,1.67-20.11,1.9-30.17.08-3.43,2.75-5.12,3.34-8,11.52-3.12,14.25-.82,16,13.53.31,8.3.59,16.61.94,24.91a15,15,0,0,1-1.22,6.8c-7.45,6.79-15,6.58-19.23-.45C207.47,400.92,207.43,398.59,207,396.35Z"/><path class="cls-15" d="M208,263.94h-4.93c-3.31-.62-6.43-2.17-9.9-2l7.19-33.34,1.56.19C202.63,240.76,205.94,252.24,208,263.94Z"/><path class="cls-13" d="M224.14,338a5.91,5.91,0,0,1-2.08-4.79c.14-6.16.06-12.32,0-18.48,0-1.95.08-3.76,2.66-3.92a63.22,63.22,0,0,1,4.76,13.41C231.81,332.81,231.78,332.81,224.14,338Z"/><path class="cls-10" d="M394.35,353.92c.56,4.76-2,7.36-5.81,9.79-8.79,5.59-17.28,11.65-25.9,17.52-1.35.92-2.57,2.14-4.42,2l-.12-124.32c2.89,3.35,5.88,3.15,9.51.89,6.59-4.09,13.39-7.84,20.16-11.63,1.85-1,3.68-2.3,6-2.28q.18,16.84.38,33.68c0,2.14.19,4.28.29,6.42-.55,17.32-.4,34.65-.06,52a24.54,24.54,0,0,0,0,8q0,1,0,2t0,2Q394.35,351.92,394.35,353.92Z"/><path class="cls-13" d="M358.1,258.86l.12,124.32c-4.74,5.52-11.28,8.54-17.2,12.42q0-67.35.07-134.7,0-10,.08-20C347.05,246.66,353.8,251.61,358.1,258.86Z"/><path class="cls-15" d="M381.08,150.13c3.21-.49,6.13.83,9.16,1.45-3.34,4.39-8.8,5.06-13.31,7.25-14.65,7.08-29.57,13.61-44.4,20.33a20.14,20.14,0,0,1-2.36.75c-3.45-6.69-9.14-11.74-13.18-18,10.07-.67,19.53-4.62,29.6-5.38,11.24-.85,21.82-6.31,33.42-4.93C380.31,151.64,380.73,150.64,381.08,150.13Z"/><path class="cls-3" d="M394.35,345.93a24.54,24.54,0,0,1,0-8Q398.38,341.92,394.35,345.93Z"/><path class="cls-3" d="M394.35,349.93q0-1,0-2c.61.12,1.29.26,1.29,1S395,349.82,394.35,349.93Z"/><path class="cls-10" d="M381.08,150.13c-.36.51-.77,1.51-1.06,1.47-11.6-1.38-22.19,4.08-33.42,4.93-10.08.76-19.54,4.71-29.6,5.38-9.37-8.62-17.71-18.46-29.06-24.76-3-1.68-6-3.52-8.95-5.28q16.61,2.72,33.22,5.43c1.29.21,2.61.3,3.91.45,7.52,1.67,15,4.12,22.57,4.83,10.13.95,20,3.3,29.92,4.93C372.8,148.2,377.06,148.63,381.08,150.13Z"/><path class="cls-10" d="M341.09,260.91q0,67.35-.07,134.7-20.48,15-41.87,28.58,0-71.14-.05-142.28c11.23-6,22.47-12.06,33.67-18.17C335.41,262.32,337.88,260.58,341.09,260.91Zm-15.15,110.2a9.66,9.66,0,0,0-2.39-4.25c-5.16-5.85-5.16-5.86-8,1.15a68.83,68.83,0,0,0-2.59,7c-.55,2-4.31,5,1.41,5.56.92.1.67,1.73.68,2.7,0,3-.11,6,.06,9,.08,1.45-1,4,1.33,4a5.48,5.48,0,0,0,5.45-3.65c.37-1.23,0-2.67.21-4,1-5.57-2.78-12.17,3.59-16.57C325.93,372,325.87,371.49,325.94,371.11Z"/><path class="cls-3" d="M397.23,406c-3.48,6,.15,10.61,3.15,15.15-1.81,1.57-2.76-.05-3.9-.39-8.9-2.64-12-.81-15.28,9.19-2-5.48,1.43-11.75,7.08-11.84,5-.08,5.68-2.73,5.84-6.53C394.23,409.24,393.34,406.27,397.23,406Z"/><path class="cls-3" d="M425,412.15c-.78-.3-1.6-.93-2.32-.83a28.09,28.09,0,0,1-21.17-5.3c-1.31-1-2.88-.47-4.33,0,.13-2,.76-3.3,3.11-2.52,1.1.37,2.41.51,3.25,1.21,5,4.15,10.84,4.6,16.94,4.21C422.78,408.8,425,409,425,412.15Z"/><path class="cls-3" d="M381.09,430.92q0,5.5,0,11A8.13,8.13,0,0,1,381.09,430.92Z"/><path class="cls-14" d="M412.81,430.48a65.44,65.44,0,0,1,13,9.42C418.66,442.18,418.22,441.87,412.81,430.48Z"/><path class="cls-10" d="M293.1,236.92l3.45-25.29a41.8,41.8,0,0,1,1.57,24.27Z"/><path class="cls-15" d="M325.94,371.11c-.07.38,0,.87-.21,1-6.38,4.4-2.64,11-3.59,16.57-.22,1.3.16,2.74-.21,4a5.48,5.48,0,0,1-5.45,3.65c-2.37,0-1.25-2.6-1.33-4-.17-3,0-6-.06-9,0-1,.23-2.6-.68-2.7-5.72-.61-2-3.59-1.41-5.56a68.83,68.83,0,0,1,2.59-7c2.82-7,2.82-7,8-1.15A9.66,9.66,0,0,1,325.94,371.11Z"/></g></g></svg>