<svg xmlns="http://www.w3.org/2000/svg" viewBox="0 0 321.42 395.64"><defs><style>.cls-1,.cls-3{fill:#fff;}.cls-1,.cls-5{stroke:#193651;stroke-miterlimit:10;}.cls-1{stroke-width:2px;}.cls-2{fill:#fdbf5e;}.cls-4,.cls-5{fill:#193651;}.cls-5{stroke-width:4px;}</style></defs><title>invoice</title><g id="Layer_2" data-name="Layer 2"><g id="Layer_1-2" data-name="Layer 1"><path class="cls-1" d="M287.42,6.21c0,10.54-7.43,18.55-17.33,18.55-9.24,0-17.33-8-17.33-18.55H231.82c0,10.54-7.43,18.55-17.32,18.55-9.24,0-17.32-8-17.32-18.55h-21c0,10.54-7.43,18.55-17.32,18.55-9.24,0-17.32-8-17.32-18.55h-21c0,10.54-7.43,18.55-17.32,18.55s-17.32-8-17.32-18.55h-21c0,10.54-7.43,18.55-17.33,18.55-9.24,0-17.32-8-17.32-18.55H6.14V389.49H30.25c0-10.54,7.43-18.55,17.33-18.55,9.24,0,17.32,8,17.32,18.55h21c0-10.54,7.43-18.55,17.33-18.55s17.32,8,17.32,18.55h21c0-10.54,7.43-18.55,17.32-18.55,9.24,0,17.32,8,17.32,18.55h21c0-10.54,7.43-18.55,17.32-18.55,9.24,0,17.33,8,17.33,18.55h21c0-10.54,7.43-18.55,17.33-18.55,9.24,0,17.33,8,17.33,18.55h27.8V6.21Z"/><path id="SVGCleanerId_0" data-name="SVGCleanerId 0" class="cls-2" d="M242.3,358.53c-7.43-7.43-17.33-12.35-27.8-12.35s-20.43,4.91-27.8,12.35c-7.43-7.43-17.32-12.35-27.8-12.35s-20.43,4.91-27.8,12.35c-7.43-7.43-17.32-12.35-27.8-12.35s-20.43,4.91-27.8,12.35c-7.43-7.43-17.32-12.35-27.8-12.35a38.37,38.37,0,0,0-18.55,4.91V44.48a37.72,37.72,0,0,0,18.55,5,37.42,37.42,0,0,0,27.8-12.35c7.43,7.43,17.32,12.35,27.8,12.35a37.53,37.53,0,0,0,27.8-12.35c7.43,7.43,17.32,12.35,27.8,12.35a37.53,37.53,0,0,0,27.8-12.35c7.43,7.43,17.32,12.35,27.8,12.35a37.53,37.53,0,0,0,27.8-12.35c7.43,7.43,17.33,12.35,27.8,12.35A35.48,35.48,0,0,0,292.33,42V353c-6.21-4.33-14.22-7.43-22.24-7.43A43.6,43.6,0,0,0,242.3,358.53Z"/><path class="cls-3" d="M287.42,6.21c0,10.54-7.43,18.55-17.33,18.55-9.24,0-17.33-8-17.33-18.55H231.82c0,10.54-7.43,18.55-17.32,18.55-9.24,0-17.32-8-17.32-18.55h-21c0,10.54-7.43,18.55-17.32,18.55-9.24,0-17.32-8-17.32-18.55h-21c0,10.54-7.43,18.55-17.32,18.55s-17.32-8-17.32-18.55h-21c0,10.54-7.43,18.55-17.33,18.55-9.24,0-17.32-8-17.32-18.55H6.14V389.49H30.25c0-10.54,7.43-18.55,17.33-18.55,9.24,0,17.32,8,17.32,18.55h21c0-10.54,7.43-18.55,17.33-18.55s17.32,8,17.32,18.55h21c0-10.54,7.43-18.55,17.32-18.55,9.24,0,17.32,8,17.32,18.55h21c0-10.54,7.43-18.55,17.32-18.55,9.24,0,17.33,8,17.33,18.55h21c0-10.54,7.43-18.55,17.33-18.55,9.24,0,17.33,8,17.33,18.55h27.8V6.21Z"/><path class="cls-4" d="M321.42,395.64H281.21v-6.21c0-6.79-4.91-12.35-11.12-12.35S259,382.64,259,389.43v6.21H225.62v-6.21c0-6.79-4.91-12.35-11.12-12.35s-11.12,5.56-11.12,12.35v6.21H170v-6.21c0-6.79-4.91-12.35-11.12-12.35s-11.12,5.56-11.12,12.35v6.21H114.42v-6.21c0-6.79-4.91-12.35-11.12-12.35s-11.12,5.56-11.12,12.35v6.21H58.83v-6.21c0-6.79-4.91-12.35-11.12-12.35s-11.12,5.56-11.12,12.35v6.21H0V0H36.46V6.21c0,6.79,5,12.35,11.12,12.35S58.7,13,58.7,6.21V0H92.06V6.21c0,6.79,4.91,12.35,11.12,12.35S114.3,13,114.3,6.21V0h33.36V6.21c0,6.79,4.91,12.35,11.12,12.35S169.89,13,169.89,6.21V0h33.49V6.21c0,6.79,4.91,12.35,11.12,12.35S225.62,13,225.62,6.21V0H259V6.21c0,6.79,4.91,12.35,11.12,12.35S281.21,13,281.21,6.21V0h40.21V395.64ZM293,383.29h16.1V12.35H293A23.77,23.77,0,0,1,270.09,30.9c-11.12,0-19.78-8-22.89-18.55H236.67A23.77,23.77,0,0,1,213.79,30.9c-11.12,0-19.78-8-22.88-18.55H180.36A23.77,23.77,0,0,1,157.48,30.9c-11.12,0-19.78-8-22.88-18.55H124.06A23.77,23.77,0,0,1,101.17,30.9c-11.12,0-19.78-8-22.89-18.55H67.75A23.77,23.77,0,0,1,44.87,30.9c-11.12,0-19.78-8-22.88-18.55H12.35V383.29h13a23.77,23.77,0,0,1,22.88-18.55c11.12,0,19.78,8,22.89,18.55H81.65a23.77,23.77,0,0,1,22.89-18.55c11.12,0,19.78,8,22.88,18.55H138a23.77,23.77,0,0,1,22.88-18.55c11.12,0,19.78,8,22.88,18.55h10.54a23.77,23.77,0,0,1,22.88-18.55c11.12,0,19.78,8,22.88,18.55h10.54a23.77,23.77,0,0,1,22.89-18.55C284.57,364.73,289.94,372.75,293,383.29Z"/><path id="SVGCleanerId_0-2" data-name="SVGCleanerId 0" class="cls-2" d="M242.3,358.53c-7.43-7.43-17.33-12.35-27.8-12.35s-20.43,4.91-27.8,12.35c-7.43-7.43-17.32-12.35-27.8-12.35s-20.43,4.91-27.8,12.35c-7.43-7.43-17.32-12.35-27.8-12.35s-20.43,4.91-27.8,12.35c-7.43-7.43-17.32-12.35-27.8-12.35a38.37,38.37,0,0,0-18.55,4.91V44.48a37.72,37.72,0,0,0,18.55,5,37.42,37.42,0,0,0,27.8-12.35c7.43,7.43,17.32,12.35,27.8,12.35a37.53,37.53,0,0,0,27.8-12.35c7.43,7.43,17.32,12.35,27.8,12.35a37.53,37.53,0,0,0,27.8-12.35c7.43,7.43,17.32,12.35,27.8,12.35a37.53,37.53,0,0,0,27.8-12.35c7.43,7.43,17.33,12.35,27.8,12.35A35.48,35.48,0,0,0,292.33,42V353c-6.21-4.33-14.22-7.43-22.24-7.43A43.6,43.6,0,0,0,242.3,358.53Z"/><rect class="cls-4" x="107.57" y="84.43" width="106.34" height="12.93"/><rect class="cls-4" x="58.7" y="125.8" width="204.02" height="12.93"/><rect class="cls-4" x="58.7" y="167.24" width="204.02" height="12.93"/><polygon class="cls-4" points="265.18 284.64 265.18 271.71 202.21 271.71 201.5 271.71 201.5 284.64 202.21 284.64 265.18 284.64"/><polygon class="cls-4" points="202.21 300.8 201.5 300.8 201.5 313.73 202.21 313.73 213.2 313.73 213.85 313.73 213.85 300.8 213.2 300.8 202.21 300.8"/><polygon class="cls-4" points="227.49 300.8 227.17 300.8 227.17 313.73 227.49 313.73 239.84 313.73 240.1 313.73 240.1 300.8 239.84 300.8 227.49 300.8"/><polygon class="cls-4" points="265.18 300.8 252.83 300.8 252.51 300.8 252.51 313.73 252.83 313.73 265.18 313.73 265.44 313.73 265.44 300.8 265.18 300.8"/><path class="cls-5" d="M103.49,313.26H94.36L66.06,254v59.3H58.7V243.17H69.05l27,56.56V243.17h7.47Z"/></g></g></svg>