<?xml version="1.0" encoding="iso-8859-1"?>
<!-- Generator: Adobe Illustrator 19.0.0, SVG Export Plug-In . SVG Version: 6.00 Build 0)  -->
<svg version="1.1" id="Capa_1" xmlns="http://www.w3.org/2000/svg" xmlns:xlink="http://www.w3.org/1999/xlink" x="0px" y="0px"
	 viewBox="0 0 512 512" style="enable-background:new 0 0 512 512;" xml:space="preserve">
<path style="fill:#8B6859;" d="M102.874,118.372v118.889h-2.083c-16.466,0-29.815,13.424-29.815,29.983l0,0
	c0,16.559,13.349,29.983,29.815,29.983h2.123c1.56,59.788,50.244,107.774,110.074,107.774h21.731c0,0.341,0,6.519,0,6.545
	c0,9.968-0.126,9.679-9.592,11.019c-7.299,1.033-14.301,3.874-20.279,8.21c-11.83,8.581-18.988,22.62-18.988,37.29V512h138.892
	v-43.935c0-14.67-7.158-28.709-18.988-37.29c-5.978-4.336-12.98-7.176-20.279-8.21c-9.465-1.34-9.592-1.051-9.592-11.019
	c0-0.026,0-6.203,0-6.545h21.731c60.814,0,110.114-49.577,110.114-110.734V118.372H102.874z"/>
<path style="fill:#CA3042;" d="M326.176,468.067V512H186.51v-43.933c0-14.674,7.192-28.711,19.087-37.288
	c3.842-2.77,8.102-4.929,12.596-6.395c2.537-0.829,5.154-1.442,7.804-1.82c3.882-0.548,6.201-0.813,7.586-1.627l1.78,0.395
	l4.486,2.537c10.139,5.75,22.534,5.791,32.714,0.113l4.76-2.65l1.78-0.395c1.385,0.813,3.705,1.079,7.586,1.627
	c2.65,0.379,5.267,0.991,7.804,1.82c4.494,1.466,8.754,3.624,12.596,6.395C318.984,439.355,326.176,453.393,326.176,468.067z"/>
<path style="fill:#875B4C;" d="M411.04,237.262h-2.607v-118.89h-43.747v175.97c0,61.121-49.533,110.654-110.654,110.654h43.747
	c60.142,0,109.087-47.982,110.617-107.769h2.645c8.701,0,16.536-3.706,22.013-9.626c4.947-5.347,7.97-12.499,7.97-20.357l0,0
	C441.023,250.686,427.599,237.262,411.04,237.262z"/>
<g>
	<circle style="fill:#E07361;" cx="166.829" cy="324.32" r="16.487"/>
	<circle style="fill:#E07361;" cx="345.859" cy="324.32" r="16.487"/>
</g>
<path style="fill:#423E3C;" d="M283.527,0H228.25c-69.304,0-125.486,56.182-125.486,125.486v142.842
	c0,5.243,7.029,6.951,9.443,2.297c8.431-16.253,20.202-45.522,25.238-88.898c1.879-16.181,15.487-28.438,31.777-28.438h173.333
	c16.29,0,29.898,12.257,31.777,28.438c5.036,43.375,16.807,72.645,25.238,88.898c2.414,4.654,9.443,2.946,9.443-2.297V125.486
	C409.014,56.182,352.832,0,283.527,0z"/>
<g>
	<path style="fill:#302D2C;" d="M409.015,125.487v142.845c0,5.227-7.022,6.961-9.429,2.322
		c-8.451-16.283-20.265-45.654-25.286-89.21c-1.065-9.201-6.007-17.092-13.078-22.156v-33.801
		c0-69.309-56.19-125.485-125.498-125.485h47.808C352.825,0.002,409.015,56.178,409.015,125.487z"/>
	<path style="fill:#302D2C;" d="M256.224,329.446c2.031-10.895-8.67-19.519-18.957-15.396c-6.079,2.436-12.109,6.749-15.562,14.339
		c0,0-4.493,12.621-16.742,20.275c-2.574,1.608-1.727,5.568,1.272,6.033C221.82,357.115,250.964,357.657,256.224,329.446z"/>
	<path style="fill:#302D2C;" d="M256.724,329.446c-2.031-10.895,8.67-19.519,18.957-15.396c6.079,2.436,12.109,6.749,15.562,14.339
		c0,0,4.494,12.621,16.742,20.275c2.574,1.608,1.727,5.568-1.272,6.033C291.128,357.115,261.985,357.657,256.724,329.446z"/>
</g>
<path style="fill:#36B0AA;" d="M279.308,421.149V512h-45.93v-91.067l1.782,0.402l4.48,2.533c10.144,5.746,22.543,5.787,32.717,0.113
	l4.758-2.647l1.782-0.402C279.02,421.005,279.164,421.077,279.308,421.149z"/>
<g>
	<path style="fill:#302D2C;" d="M211.875,285.851c-4.269,0-7.729-3.46-7.729-7.729V254.41c0-4.269,3.46-7.729,7.729-7.729
		s7.729,3.46,7.729,7.729v23.712C219.604,282.391,216.143,285.851,211.875,285.851z"/>
	<path style="fill:#302D2C;" d="M300.812,285.851c-4.269,0-7.729-3.46-7.729-7.729V254.41c0-4.269,3.46-7.729,7.729-7.729
		s7.729,3.46,7.729,7.729v23.712C308.541,282.391,305.08,285.851,300.812,285.851z"/>
	<path style="fill:#302D2C;" d="M225.39,225.438h-31.031c-4.269,0-7.729-3.46-7.729-7.729s3.46-7.729,7.729-7.729h31.031
		c4.269,0,7.729,3.46,7.729,7.729C233.119,221.978,229.659,225.438,225.39,225.438z"/>
	<path style="fill:#302D2C;" d="M318.326,225.438h-31.031c-4.269,0-7.729-3.46-7.729-7.729s3.46-7.729,7.729-7.729h31.031
		c4.269,0,7.729,3.46,7.729,7.729S322.594,225.438,318.326,225.438z"/>
	<path style="fill:#302D2C;" d="M256.47,327.381c-9.673,0-18.358-5.757-22.126-14.667c-1.613-3.815,0.171-8.215,3.986-9.829
		c3.813-1.614,8.215,0.171,9.829,3.986c1.416,3.347,4.678,5.509,8.311,5.509c3.456,0,6.653-2.017,8.144-5.138
		c1.786-3.738,6.262-5.32,10-3.534s5.319,6.263,3.534,10C274.18,322.015,265.671,327.381,256.47,327.381z"/>
</g>
<g>
</g>
<g>
</g>
<g>
</g>
<g>
</g>
<g>
</g>
<g>
</g>
<g>
</g>
<g>
</g>
<g>
</g>
<g>
</g>
<g>
</g>
<g>
</g>
<g>
</g>
<g>
</g>
<g>
</g>
</svg>
